<?xml version="1.0" encoding="utf-8"?>
<!-- Generator: Adobe Illustrator 25.4.1, SVG Export Plug-In . SVG Version: 6.00 Build 0)  -->
<svg version="1.1" id="Capa_1" xmlns="http://www.w3.org/2000/svg" xmlns:xlink="http://www.w3.org/1999/xlink" x="0px" y="0px"
	 viewBox="0 0 500 500" style="enable-background:new 0 0 500 500;" xml:space="preserve">
<style type="text/css">
	.st0{fill:#330000;}
	.st1{fill:#FD9900;}
</style>
<g>
	<path class="st0" d="M250,128c26.7,0,53.3,0,80,0c22,0,40,14.7,44.2,36.4c0.5,2.6,0.8,5.3,0.8,8c0,51.7,0,103.4,0,154.9
		c0,22.6-17,41.5-39.4,44c-3,0.3-6,0.5-9.1,0.5c-52.1,0-104.2,0.1-156.2-0.1c-24.1-0.1-41-16.7-44.5-36.8c-0.5-2.7-0.8-5.5-0.8-8.3
		c0-51.3,0-102.6,0-153.8c0-22.1,15.5-40.5,37.3-44.2c2.5-0.4,5.1-0.7,7.7-0.7C196.6,128,223.3,128,250,128z M226.6,190.5
		c-4.2,0-8.4,0.1-12.6,0c-1.6,0-2.1,0.5-2.1,2.1c0.1,2.6-0.3,5.1-1.1,7.6c-2.5,7.3-5,14.7-7.5,22c-8.7,25-17.3,49.9-26,74.9
		c-1,2.9-0.8,3.2,2.3,3.2c5.7,0,11.4,0,17.1,0c1.7,0,2.5-0.6,3-2.2c2.3-7.4,4.8-14.8,7.1-22.3c0.4-1.1,0.8-1.5,2-1.5
		c11.9,0.1,23.8,0,35.7,0c1.2,0,1.7,0.3,2.1,1.5c2.5,7.5,5.2,15.1,7.7,22.6c0.4,1.1,0.9,1.9,2.3,1.9c7,0,13.9,0,20.9,0
		c1.6,0,2-0.5,1.4-2.1c-0.9-2.5-1.8-5-2.7-7.6c-11.6-32.8-23.3-65.6-34.9-98.4c-0.4-1.2-1-1.7-2.4-1.7
		C235,190.5,230.8,190.5,226.6,190.5z M290.2,258.5c0,13.1,0,26.3,0,39.4c0,2.1,0.3,2.4,2.4,2.4c6.2,0,12.5,0,18.7,0
		c2,0,2.2-0.2,2.2-2.3c0-26.3,0-52.6,0-78.9c0-1.9-0.2-2.1-2.2-2.1c-6.3,0-12.6,0-18.8,0c-2.2,0-2.3,0.1-2.3,2.3
		C290.2,232.4,290.2,245.4,290.2,258.5z M302,208.3c7.5,0.1,13-5.3,13-12.7c0.1-8-4.9-13.3-12.7-13.4c-7.3-0.1-13.1,5.4-13.2,12.5
		C288.9,202.8,294.1,208.2,302,208.3z"/>
	<path class="st1" d="M226.6,190.5c4.2,0,8.4,0.1,12.6,0c1.3,0,1.9,0.5,2.4,1.7c11.6,32.8,23.2,65.6,34.9,98.4
		c0.9,2.5,1.8,5,2.7,7.6c0.5,1.5,0.2,2.1-1.4,2.1c-7,0-13.9,0-20.9,0c-1.4,0-1.9-0.8-2.3-1.9c-2.6-7.5-5.2-15-7.7-22.6
		c-0.4-1.2-0.9-1.5-2.1-1.5c-11.9,0-23.8,0-35.7,0c-1.2,0-1.7,0.4-2,1.5c-2.3,7.4-4.8,14.8-7.1,22.3c-0.5,1.6-1.4,2.3-3,2.2
		c-5.7-0.1-11.4,0-17.1,0c-3.1,0-3.3-0.3-2.3-3.2c8.7-25,17.3-49.9,26-74.9c2.5-7.3,5-14.7,7.5-22c0.8-2.5,1.2-5,1.1-7.6
		c0-1.5,0.4-2.1,2.1-2.1C218.2,190.6,222.4,190.5,226.6,190.5z M226.4,209.9c-0.3,1.4-0.6,2.9-1,4.3c-3.4,12.6-7.4,25-11.4,37.4
		c-0.4,1.4-0.2,1.6,1.2,1.6c6.1-0.1,12.1,0,18.2,0c2.1,0,4.3,0,6.6,0C235.4,238.6,230.6,224.4,226.4,209.9z"/>
	<path class="st1" d="M290.2,258.5c0-13,0-26.1,0-39.1c0-2.2,0.1-2.3,2.3-2.3c6.3,0,12.6,0,18.8,0c2,0,2.2,0.2,2.2,2.1
		c0,26.3,0,52.6,0,78.9c0,2.1-0.2,2.3-2.2,2.3c-6.2,0-12.5,0-18.7,0c-2.1,0-2.4-0.3-2.4-2.4C290.2,284.8,290.2,271.6,290.2,258.5z"
		/>
	<path class="st1" d="M302,208.3c-7.9-0.1-13-5.5-12.9-13.6c0.1-7.1,5.9-12.6,13.2-12.5c7.8,0.1,12.8,5.4,12.7,13.4
		C314.9,203,309.4,208.3,302,208.3z"/>
	<path class="st0" d="M226.4,209.9c4.2,14.5,9,28.8,13.6,43.3c-2.3,0-4.5,0-6.6,0c-6.1,0-12.1,0-18.2,0c-1.4,0-1.6-0.2-1.2-1.6
		c4-12.4,7.9-24.8,11.4-37.4C225.8,212.8,226.1,211.3,226.4,209.9z"/>
</g>
</svg>
