<?xml version="1.0" encoding="utf-8"?>
<!-- Generator: Adobe Illustrator 25.4.1, SVG Export Plug-In . SVG Version: 6.00 Build 0)  -->
<svg version="1.1" id="Capa_1" xmlns="http://www.w3.org/2000/svg" xmlns:xlink="http://www.w3.org/1999/xlink" x="0px" y="0px"
	 viewBox="0 0 500 500" style="enable-background:new 0 0 500 500;" xml:space="preserve">
<g>
	<path d="M206.7,303.5c21.3-9.6,41.8-18.9,62.4-28.2c12.3-5.6,24.8-10.8,36.9-16.8c30.2-14.9,33.4-50.3,12.4-73.6
		c-17.4-19.3-49.5-26.1-73.8-15.3c-21.6,9.6-43.5,18.3-65.2,27.5c-7.3,3.1-10.9,8.1-10.4,15c0.5,7.2,5.1,11.5,11.3,14.2
		c5.5,2.4,11,2.1,16.4-0.3c18.9-8.2,37.9-16.4,56.8-24.5c11.2-4.8,23.9-1.7,30,7.3c6.7,9.8,3.9,21.1-6.9,26.1
		c-17,7.8-34.2,15.1-51.3,22.7c-9.8,4.4-19.6,8.4-30.4,9.5c-21.7,2.1-50-7.6-63.6-31.7c-12.4-22-6-49.6,15.8-63.6
		c9.3-6,19.9-9.9,30.1-14.2c17.1-7.2,34.1-14.7,51.6-20.9c41.3-14.6,79.1-6.8,112.9,20.4c15.9,12.8,27.3,29.1,31.5,49.4
		c5.2,24.9-0.5,47.5-16.8,67.2c-11.1,13.3-25.7,21.2-41.4,27.9c-13.7,5.8-27.2,12-40.7,18c-1.2,0.5-2.3,1.2-3.8,2.1
		c3.8,5.8,7,11.7,11.3,16.8c8.3,9.8,5.7,27.5-11.6,31.6c-9.8,2.3-19-0.3-24.9-8.9C232.2,342.1,219.7,322.9,206.7,303.5z"/>
</g>
</svg>
