<?xml version="1.0" encoding="utf-8"?>
<!-- Generator: Adobe Illustrator 25.4.1, SVG Export Plug-In . SVG Version: 6.00 Build 0)  -->
<svg version="1.1" id="Capa_1" xmlns="http://www.w3.org/2000/svg" xmlns:xlink="http://www.w3.org/1999/xlink" x="0px" y="0px"
	 viewBox="0 0 500 500" style="enable-background:new 0 0 500 500;" xml:space="preserve">
<style type="text/css">
	.st0{fill:#0270BA;}
	.st1{fill:#FDFDFE;}
	.st2{fill:#2AA8DE;}
</style>
<g>
	<path class="st0" d="M250.2,142.1c40.6,0,81.1,0,121.7,0c2.7,0,3.4,0.4,3.1,3.4c-4.6,49.7-8.8,99.3-13.3,149
		c-2.9,33.2-5.9,66.2-8.8,99.4c-0.1,2.2-1,3.1-3.1,3.7c-31.9,8.8-63.6,17.8-95.4,26.8c-2.8,0.7-5.3,0.9-8.1,0.1
		c-31.7-9-63.4-18-95.1-26.8c-2.2-0.6-2.9-1.6-3.2-3.8c-5-56.6-10.2-113.1-15.2-169.8c-2.1-23.6-4.1-47.3-6.3-70.9
		c-0.3-2.7-0.7-5.3-1.2-8c-0.3-2.2,0.1-2.9,2.7-2.9C168.7,142.1,209.4,142.1,250.2,142.1z M250.6,338.4c-0.4,0.1-0.7,0.4-1.2,0.4
		c-12.5-2.4-25.2-4.9-37.8-7.2c-1.6-0.3-2.1-1-2.2-2.7c-0.4-6.8-1.2-13.4-1.6-20.2c-0.1-2.2-0.7-3.2-3.2-3.2
		c-8.6,0.1-17.3,0.1-25.8,0c-2.2,0-2.5,0.7-2.4,2.7c0.4,4.4,0.9,8.7,1,13.1c0.6,9.9,1.9,19.6,3.2,29.5c0.3,1.9,1,3.1,3.2,3.7
		c11.8,2.9,23.6,6.2,35.5,9.1c10.2,2.5,20.4,5,30.5,7.4c-0.3,2.5,0.7,5,0.6,7.7c-0.1,7.1,0,14.2,0,21.2c0,3.2,0.4,3.5,3.5,2.8
		c3.4-0.9,6.6-1.9,10-2.8c22.3-6.2,44.5-12.2,66.8-18.4c1.3-0.3,2.5-0.9,2.7-2.7c0.3-4.7,0.7-9.6,1.2-14.3c0.4-5,0.9-9.9,1.3-14.9
		c0.7-8.4,1.6-16.8,2.4-25.2c0.6-5.8,1.2-11.5,1.8-17.3c0.4-5,1.2-9.9,1.2-14.9c0.1-5.2,0.7-10.3,1-15.3c0.4-7.8,1.5-15.6,2.2-23.3
		c0.4-5.3,0.9-10.6,1.3-15.8c0.7-7.8,1.6-15.8,2.4-23.6c0.7-7.5,1.2-15.2,1.9-22.9c0.9-8.7,1.8-17.4,2.4-26.1
		c0.1-2.5-0.7-3.1-3.1-3.1c-32,0-63.9,0.1-95.9,0c-2.7,0-3.2,0.9-3.2,3.4c0.1,8.8,0,17.8,0,26.7c-1.2,0-2.5,0.1-3.7,0.1
		c-26.1,0-52.2,0-78.3,0c-0.7,0-1.5,0-2.2,0c-1.3,0-1.8,0.4-1.6,1.9c1,8.4,1.9,16.8,2.8,25.2c0.1,1.3,0.6,1.8,1.9,1.8
		c3.2,0,6.5,0.3,9.9,0.3c21.1,0.1,42.2,0.1,63.3,0.1c1.2,0,2.4,0,3.7,0c-0.6,1.5-1.6,1.6-2.5,1.9c-22.4,9.7-45,19.6-67.4,29.4
		c-4.9,2.1-5,2.1-4.6,7.4c0.7,7.7,1.8,15.5,2.2,23.2c0.1,3.1,1.2,3.7,4,3.5c23-0.7,46-0.4,69-0.4c1.2,0,2.5,0.1,3.7,0.1
		C250.6,304,250.6,321.1,250.6,338.4z"/>
	<path class="st0" d="M250.3,75.3c6.9,0,13.9,0.1,20.8,0c2.1,0,2.7,0.6,2.5,2.5c-0.1,2.8-0.1,5.8,0,8.6c0.1,2.1-0.6,2.7-2.7,2.7
		c-9.4,0-18.9,0-28.2,0c-1.8,0-3.2-0.1-3.2,2.5c0,2.5,0.9,2.8,3.1,2.8c9.4,0,18.9,0.1,28.2,0c1.9,0,2.8,0.3,2.7,2.5
		c-0.1,7.8,0,15.5,0.1,23.3c0,2.1-0.7,2.5-2.7,2.5c-13.9,0-27.9,0-41.7,0c-2.1,0-2.5-0.6-2.7-2.7c-0.1-9-0.3-9,8.6-9
		c7.1,0,14.2,0,21.2,0c2.1,0,2.9-0.3,2.8-2.7c-0.1-5.3,0.6-4.3-4.3-4.4c-8.6,0-17-0.1-25.5,0c-2.2,0-2.8-0.6-2.8-2.8
		c0.1-7.8,0.1-15.5,0-23.3c0-2.1,0.4-2.8,2.7-2.8C236.4,75.4,243.4,75.3,250.3,75.3z"/>
	<path class="st0" d="M302.1,122.6c-6.9,0-13.7-0.1-20.6,0c-2.2,0-2.9-0.4-3.1-2.8c-0.1-8.7-0.3-8.7,8.4-8.7c7.1,0,14.2-0.1,21.2,0
		c2.1,0,2.8-0.6,2.8-2.7c-0.1-5.2,0.6-4.3-4.1-4.3c-8.6,0-17,0-25.5,0c-2.2,0-2.8-0.6-2.8-2.8c0.1-7.8,0.1-15.8,0.1-23.6
		c0-1.9,0.3-2.7,2.5-2.7c13.9,0.1,27.9,0.1,41.7,0c2.2,0,2.8,0.7,2.7,2.8c-0.1,2.8-0.1,5.6,0,8.3c0.1,2.2-0.6,2.8-2.8,2.8
		c-9.4-0.1-18.9,0-28.3,0c-1.6,0-3.4-0.6-3.1,2.4c0.1,2.2,0.4,3.2,3.1,3.1c9.4-0.1,18.9,0.1,28.3,0c2.1,0,2.9,0.4,2.8,2.7
		c-0.1,7.5-0.1,15.2,0,22.7c0,2.4-0.9,2.7-2.9,2.7C315.8,122.6,309,122.6,302.1,122.6L302.1,122.6z"/>
	<path class="st0" d="M175.4,98.7c0-6.9,0-13.9,0-20.8c0-1.9,0.4-2.7,2.5-2.7c13.9,0.1,27.6,0.1,41.4,0c1.8,0,2.5,0.4,2.5,2.4
		c-0.1,3.1-0.1,6.3,0,9.4c0,2.1-0.7,2.5-2.7,2.5c-8.8-0.1-17.6,0.1-26.4,0c-2.4,0-2.9,0.6-2.9,2.9c0.1,5.2,0,10.2-0.1,15.3
		c0,2.1,0.4,2.7,2.5,2.7c8.8-0.1,17.8,0,26.7,0c2.1,0,2.9,0.4,2.8,2.7c-0.1,3.1,1.2,6.9-0.7,8.8c-1.8,1.9-5.6,0.6-8.6,0.6
		c-11.5,0-22.9,0-34.4,0c-2.2,0-2.8-0.6-2.8-2.8C175.4,112.9,175.4,105.8,175.4,98.7L175.4,98.7z"/>
	<path class="st1" d="M250.6,286.9c-1.2,0-2.5-0.1-3.7-0.1c-23,0-46-0.3-69,0.4c-2.8,0.1-3.7-0.6-4-3.5c-0.4-7.8-1.5-15.5-2.2-23.2
		c-0.4-5.5-0.4-5.3,4.6-7.4c22.6-9.7,45-19.5,67.4-29.4c0.7-0.3,1.8-0.4,2.5-1.9c-1.3,0-2.5,0-3.7,0c-21.1,0-42.2-0.1-63.3-0.1
		c-3.2,0-6.5-0.3-9.9-0.3c-1.3,0-1.8-0.6-1.9-1.8c-0.9-8.4-1.8-16.8-2.8-25.2c-0.1-1.3,0.3-1.9,1.6-1.9c0.7,0,1.5,0,2.2,0
		c26.1,0,52.2,0,78.3,0c1.2,0,2.5-0.1,3.7-0.1s2.5,0.1,3.7,0.1c25.2,0,50.3,0.1,75.5,0.1c2.5,0,3.4,0.6,3.1,3.2
		c-0.9,8.6-1.6,17.1-2.2,25.7c-0.1,2.5-1,4.3-3.7,5.5c-14.6,6.3-29.2,12.7-43.8,19.2c-6.9,2.9-13.7,6-20.9,9.3
		c1.5,0.9,2.7,0.6,3.7,0.6c19.6,0,39.1,0,58.7,0c1.5,0,3.1-0.4,2.9,2.2c-1,12.7-1.8,25.5-2.8,38.2c-0.9,10.5-1.9,20.9-2.8,31.4
		c-0.7,7.8-1.6,15.6-2.2,23.5c-0.1,1.6-0.9,2.2-2.4,2.7c-11.5,2.9-22.9,6-34.4,9.1c-10.9,2.8-22,5.6-32.9,8.4
		c-10.2-2.5-20.4-4.9-30.5-7.4c-11.8-2.9-23.6-6.2-35.5-9.1c-2.2-0.6-2.9-1.6-3.2-3.7c-1.2-9.9-2.7-19.6-3.2-29.5
		c-0.3-4.4-0.7-8.7-1-13.1c-0.1-1.9,0.1-2.7,2.4-2.7c8.6,0.1,17.3,0.1,25.8,0c2.5,0,3.1,1,3.2,3.2c0.4,6.8,1.2,13.4,1.6,20.2
		c0.1,1.6,0.6,2.4,2.2,2.7c12.5,2.4,25.2,4.9,37.8,7.2c0.3,0,0.7-0.3,1.2-0.4c0.1,0,0.4,0,0.6,0c11.7-3.5,23.5-7.1,35.1-10.6
		c1.6-0.4,1.6-1.5,1.8-2.8c0.3-4.7,0.6-9.6,1-14.3c0.4-7.1,0.9-14.3,1.3-21.4c0.1-1.5,0-2.5-2.1-2.5
		C275.8,286.8,263.3,286.8,250.6,286.9z"/>
	<path class="st2" d="M250,371c10.9-2.8,22-5.6,32.9-8.4c11.5-2.9,22.9-6,34.4-9.1c1.5-0.4,2.2-0.9,2.4-2.7
		c0.7-7.8,1.5-15.6,2.2-23.5c1-10.5,1.9-20.9,2.8-31.4c1-12.7,1.9-25.5,2.8-38.2c0.1-2.7-1.5-2.2-2.9-2.2c-19.6,0-39.1,0-58.7,0
		c-1,0-2.2,0.3-3.7-0.6c7.2-3.2,14-6.3,20.9-9.3c14.6-6.5,29.2-12.8,43.8-19.2c2.5-1,3.4-2.8,3.7-5.5c0.7-8.6,1.3-17.1,2.2-25.7
		c0.3-2.7-0.4-3.2-3.1-3.2c-25.2,0-50.3,0-75.5-0.1c-1.2,0-2.5-0.1-3.7-0.1c0-8.8,0-17.8,0-26.7c0-2.5,0.6-3.4,3.2-3.4
		c32,0.1,63.9,0.1,95.9,0c2.4,0,3.2,0.4,3.1,3.1c-0.6,8.7-1.5,17.4-2.4,26.1c-0.7,7.5-1.2,15.2-1.9,22.9c-0.7,7.8-1.6,15.8-2.4,23.6
		c-0.4,5.3-0.9,10.6-1.3,15.8c-0.7,7.8-1.8,15.6-2.2,23.3c-0.3,5.2-0.9,10.2-1,15.3c0,5-0.7,9.9-1.2,14.9
		c-0.6,5.8-1.2,11.5-1.8,17.3c-0.7,8.4-1.6,16.8-2.4,25.2c-0.4,5-0.9,9.9-1.3,14.9c-0.4,4.7-0.9,9.6-1.2,14.3
		c-0.1,1.8-1.3,2.2-2.7,2.7c-22.3,6.2-44.5,12.4-66.8,18.4c-3.4,0.9-6.6,1.9-10,2.8c-3.1,0.9-3.5,0.4-3.5-2.8c0-7.1-0.1-14.2,0-21.2
		C250.7,376,249.9,373.7,250,371z"/>
	<path class="st2" d="M250.6,286.9c12.5,0,25.2,0,37.8-0.1c2.1,0,2.1,1,2.1,2.5c-0.4,7.1-0.9,14.3-1.3,21.4c-0.3,4.7-0.7,9.6-1,14.3
		c0,1.3-0.1,2.4-1.8,2.8c-11.7,3.5-23.5,7.1-35.1,10.6c-0.1,0-0.4,0-0.6,0C250.6,321.1,250.6,304,250.6,286.9z"/>
</g>
</svg>
