<?xml version="1.0" encoding="utf-8"?>
<!-- Generator: Adobe Illustrator 25.4.1, SVG Export Plug-In . SVG Version: 6.00 Build 0)  -->
<svg version="1.1" id="Capa_1" xmlns="http://www.w3.org/2000/svg" xmlns:xlink="http://www.w3.org/1999/xlink" x="0px" y="0px"
	 viewBox="0 0 500 500" style="enable-background:new 0 0 500 500;" xml:space="preserve">
<style type="text/css">
	.st0{fill:#E55202;}
	.st1{fill:#FEFEFE;}
	.st2{fill:#FE6D01;}
</style>
<g>
	<path class="st0" d="M250.1,110.6c40.4,0,80.7,0.1,121.1-0.1c3.6,0,4,1.1,3.7,4.2c-2.9,31.6-5.6,63.1-8.5,94.7
		c-4.4,49.5-8.8,98.9-13.1,148.4c-0.2,2.5-1.2,3.3-3.4,3.9c-31.8,9-63.5,18-95.3,27.2c-3.2,0.9-6,0.9-9.2,0
		c-31.8-9.2-63.7-18.3-95.6-27.3c-2.2-0.6-3-1.4-3.2-3.7c-3.2-37.4-6.5-74.9-9.8-112.3c-2.9-33-5.9-65.9-8.9-98.9
		c-1-10.8-1.8-21.5-2.9-32.3c-0.3-3.1,0.3-4,3.6-4C169.3,110.6,209.7,110.6,250.1,110.6z M250,332.3c0,10.6,0,21.1,0,31.7
		c0,2,0.1,3.5,2.9,2.7c24.2-7,48.4-13.9,72.7-20.6c4.9-1.3,7.3-2.8,7.4-8.6c0.1-9.5,1.6-19,2.5-28.6c0.6-6.4,1-12.8,1.5-19.2
		c0.9-10.1,1.8-20.2,2.7-30.3c0.5-6.2,1-12.3,1.5-18.5c0.9-9.8,1.8-19.5,2.7-29.3c0.6-6.4,0.9-12.8,1.5-19.2
		c0.8-9.2,1.9-18.3,2.7-27.5c0.8-9.5,1.3-19.1,2.3-28.6c0.3-2.8-0.1-3.4-2.8-3.4c-31.4,0.1-62.9,0.1-94.3,0c-3,0-3.5,1-3.5,3.7
		c0.1,11,0.1,22.1,0.1,33.1c-1.3,0.1-2.6,0.2-3.9,0.2c-20,0-40,0.1-60,0c-2.5,0-3.1,0.6-3,3.1c1.7,27.2,3.3,54.4,4.8,81.6
		c0.2,2.9,1.3,3.4,3.8,3.4c18.1-0.1,36.3-0.1,54.4,0c1.3,0,2.6,0.2,3.8,0.3c0,14.3,0,28.5,0,42.8c-9.8-2.6-19.1-6.4-28.7-9.5
		c-1.5-0.5-1.5-1.5-1.6-2.7c-0.3-4.4-0.8-8.9-1-13.3c-0.1-2.2-0.9-2.9-3.2-2.9c-7.8,0.1-15.5,0.2-23.3,0c-2.5-0.1-3.1,0.7-2.9,3.2
		c0.9,11.3,1.7,22.7,2.4,34c0.2,2.5,1.2,3.5,3.5,4.3C213.6,320.1,231.7,326.2,250,332.3z"/>
	<path class="st1" d="M250,258.3c-1.3-0.1-2.6-0.3-3.8-0.3c-18.1,0-36.3-0.1-54.4,0c-2.6,0-3.7-0.5-3.8-3.4
		c-1.5-27.2-3.1-54.4-4.8-81.6c-0.2-2.5,0.5-3.1,3-3.1c20,0.1,40,0.1,60,0c1.3,0,2.6-0.1,3.9-0.2c1.3,0.1,2.6,0.2,3.9,0.2
		c20.1,0,40.3,0.1,60.4-0.1c2.8,0,3.6,0.6,3.3,3.5c-0.8,7-1.2,14-1.8,21.1c-0.4,4.8-0.4,4.8-5.4,4.8c-20.1,0-40.2,0.1-60.4,0.2
		c-11.4-0.1-22.8-0.1-34.2-0.2c-2.5,0-1.9,1.7-1.8,2.9c0.6,8.3,1.4,16.6,2,24.9c0.1,1.7,1,1.8,2.3,1.8c10.6-0.1,21.1-0.1,31.7-0.2
		c0.6,0,1.2,0.1,1.8,0.1c19.4,0,38.8,0,58.2,0c2.5,0,3.5,0.3,3.1,3.2c-0.6,5.4-0.7,10.8-1,16.2c-1.2,20.5-2.5,41-3.7,61.5
		c-0.2,2.8-1.2,3.9-3.9,4.8c-18.2,5.9-36.4,11.9-54.6,17.9c-18.3-6.1-36.5-12.2-54.8-18.1c-2.4-0.8-3.4-1.8-3.5-4.3
		c-0.7-11.3-1.5-22.7-2.4-34c-0.2-2.5,0.4-3.2,2.9-3.2c7.8,0.2,15.5,0.1,23.3,0c2.3,0,3.1,0.6,3.2,2.9c0.2,4.4,0.7,8.9,1,13.3
		c0.1,1.2,0.1,2.2,1.6,2.7c9.6,3.1,19,6.8,28.7,9.5c9.7-2.7,19.1-6.3,28.7-9.4c1.2-0.4,1.6-1,1.7-2.3c0.6-9.8,1.3-19.6,2-29.4
		c0.1-1.4-0.4-1.9-1.7-1.9C270.4,258.1,260.2,258.2,250,258.3z"/>
	<path class="st2" d="M250,199.4c20.1-0.1,40.2-0.1,60.4-0.2c5,0,5,0,5.4-4.8c0.6-7,1-14.1,1.8-21.1c0.3-2.9-0.5-3.5-3.3-3.5
		c-20.1,0.1-40.3,0.1-60.4,0.1c-1.3,0-2.6-0.1-3.9-0.2c0-11,0.1-22.1-0.1-33.1c0-2.6,0.5-3.7,3.5-3.7c31.4,0.1,62.9,0.1,94.3,0
		c2.7,0,3.1,0.5,2.8,3.4c-1.1,9.5-1.5,19.1-2.3,28.6c-0.8,9.2-1.8,18.3-2.7,27.5c-0.6,6.4-1,12.8-1.5,19.2
		c-0.9,9.8-1.8,19.5-2.7,29.3c-0.6,6.2-1,12.3-1.5,18.5c-0.9,10.1-1.8,20.2-2.7,30.3c-0.6,6.4-1,12.8-1.5,19.2
		c-0.9,9.5-2.4,19-2.5,28.6c-0.1,5.8-2.6,7.3-7.4,8.6c-24.3,6.7-48.5,13.6-72.7,20.6c-2.8,0.8-2.9-0.6-2.9-2.7c0-10.6,0-21.1,0-31.7
		c18.2-6,36.4-12.1,54.6-17.9c2.6-0.9,3.7-2,3.9-4.8c1.1-20.5,2.4-41,3.7-61.5c0.3-5.4,0.4-10.8,1-16.2c0.3-2.9-0.7-3.2-3.1-3.2
		c-19.4,0.1-38.8,0-58.2,0c-0.6,0-1.2-0.1-1.8-0.1C250,218.9,250,209.1,250,199.4z"/>
	<path class="st2" d="M250,258.3c10.2-0.1,20.4-0.1,30.6-0.2c1.4,0,1.8,0.5,1.7,1.9c-0.7,9.8-1.4,19.6-2,29.4
		c-0.1,1.2-0.6,1.9-1.7,2.3c-9.6,3.1-18.9,6.8-28.7,9.4C250,286.8,250,272.5,250,258.3z"/>
	<path class="st0" d="M250,199.4c0,9.7,0,19.4,0,29.2c-10.6,0.1-21.1,0.1-31.7,0.2c-1.3,0-2.2-0.2-2.3-1.8c-0.6-8.3-1.4-16.6-2-24.9
		c-0.1-1.2-0.6-2.9,1.8-2.9C227.2,199.3,238.6,199.3,250,199.4z"/>
</g>
</svg>
