<?xml version="1.0" encoding="utf-8"?>
<!-- Generator: Adobe Illustrator 25.4.1, SVG Export Plug-In . SVG Version: 6.00 Build 0)  -->
<svg version="1.1" id="Capa_1" xmlns="http://www.w3.org/2000/svg" xmlns:xlink="http://www.w3.org/1999/xlink" x="0px" y="0px"
	 viewBox="0 0 500 500" style="enable-background:new 0 0 500 500;" xml:space="preserve">
<style type="text/css">
	.st0{fill:#FFFFFF;}
</style>
<g>
	<path d="M374.5,125.5c0,83.2,0,166.3,0,249.5c-83.2,0-166.3,0-249.5,0c0-83.1,0-166.2,0-249.5C208.4,125.5,291.5,125.5,374.5,125.5
		z M140.6,141.1c0,72.9,0,145.6,0,218.3c72.9,0,145.6,0,218.3,0c0-72.8,0-145.5,0-218.3C286.1,141.1,213.4,141.1,140.6,141.1z"/>
	<path class="st0" d="M374.5,125.5c-83.1,0-166.1,0-249.5,0c0,83.3,0,166.4,0,249.5c-0.2-0.6-0.5-1.1-0.5-1.7c0-9.6,0-19.2,0-28.7
		c0-73.1,0-146.3,0-219.6c1.3,0,2.5,0,3.8,0c81.3,0,162.7,0,244,0C373.1,125,373.8,125.3,374.5,125.5z"/>
	<path class="st0" d="M140.6,141.1c72.8,0,145.5,0,218.3,0c0,72.8,0,145.4,0,218.3c-72.7,0-145.4,0-218.3,0
		C140.6,286.7,140.6,214,140.6,141.1z M285.8,314c-0.2-0.8-0.3-1.5-0.5-2.2c-12.2-39.4-24.4-78.8-36.6-118.3
		c-0.5-1.6-1.2-2.1-2.9-2.1c-10.4,0.1-20.8,0.1-31.2,0c-2.3,0-3.2,0.6-3.9,2.8c-11.9,39.1-23.9,78.2-35.8,117.2
		c-0.2,0.8-0.5,1.6-0.7,2.6c9.7,0,19.1,0,28.6,0c0.2-0.8,0.5-1.6,0.7-2.3c2.5-8.9,5-17.8,7.4-26.7c0.5-1.7,1.1-2.4,2.9-2.3
		c10.2,0.1,20.5,0.1,30.7,0c1.7,0,2.4,0.6,2.8,2.2c1.2,4.3,2.5,8.5,3.8,12.8c1.7,5.5,3.3,11,5,16.4C266.2,314,275.9,314,285.8,314z
		 M324.3,314c0-29.6,0-59.1,0-88.6c-9.2,0-18.2,0-27.4,0c0,29.6,0,59,0,88.6C306.1,314,315.1,314,324.3,314z M310.5,214.2
		c8.6,0,14.9-5.7,14.9-13.6c0-8.2-6.1-14.1-14.7-14.1c-8.6,0-14.5,5.7-14.6,13.9C296.1,208.4,302.1,214.2,310.5,214.2z"/>
	<path d="M285.8,314c-9.9,0-19.6,0-29.6,0c-1.6-5.4-3.3-10.9-5-16.4c-1.3-4.3-2.6-8.5-3.8-12.8c-0.4-1.6-1.1-2.2-2.8-2.2
		c-10.2,0.1-20.5,0.1-30.7,0c-1.8,0-2.5,0.7-2.9,2.3c-2.4,8.9-4.9,17.8-7.4,26.7c-0.2,0.8-0.5,1.5-0.7,2.3c-9.5,0-18.9,0-28.6,0
		c0.3-0.9,0.5-1.7,0.7-2.6c12-39.1,23.9-78.1,35.8-117.2c0.7-2.2,1.6-2.8,3.9-2.8c10.4,0.1,20.8,0.1,31.2,0c1.7,0,2.4,0.6,2.9,2.1
		c12.2,39.4,24.4,78.8,36.6,118.3C285.5,312.5,285.6,313.2,285.8,314z M242.7,261.8c-4.6-16.6-9.2-32.9-13.8-49.3
		c-0.2,0-0.3,0.1-0.5,0.1c-4.3,16.4-8.5,32.8-12.8,49.2C224.7,261.8,233.5,261.8,242.7,261.8z"/>
	<path d="M324.3,314c-9.2,0-18.2,0-27.4,0c0-29.5,0-59,0-88.6c9.1,0,18.2,0,27.4,0C324.3,254.9,324.3,284.4,324.3,314z"/>
	<path d="M310.5,214.2c-8.4,0-14.4-5.8-14.4-13.9c0-8.2,6-13.9,14.6-13.9c8.6,0,14.7,5.9,14.7,14.1
		C325.3,208.5,319.1,214.2,310.5,214.2z"/>
	<path class="st0" d="M242.7,261.8c-9.1,0-18,0-27,0c4.3-16.5,8.5-32.9,12.8-49.2c0.2,0,0.3-0.1,0.5-0.1
		C233.5,228.9,238,245.2,242.7,261.8z"/>
</g>
</svg>
