<?xml version="1.0" encoding="utf-8"?>
<!-- Generator: Adobe Illustrator 25.4.1, SVG Export Plug-In . SVG Version: 6.00 Build 0)  -->
<svg version="1.1" id="Capa_1" xmlns="http://www.w3.org/2000/svg" xmlns:xlink="http://www.w3.org/1999/xlink" x="0px" y="0px"
	 viewBox="0 0 500 500" style="enable-background:new 0 0 500 500;" xml:space="preserve">
<style type="text/css">
	.st0{fill:#E3A125;}
	.st1{fill:#111111;}
	.st2{fill:#FEFEFE;}
</style>
<g>
	<path class="st0" d="M250,142.5c40.9,0,81.9,0,122.8,0c2.3,0,2.3,0,2.2,2.3c-0.9,10.9-1.7,21.6-2.8,32.5
		c-0.9,10.6-1.9,21.3-2.8,31.9c-1.3,14.4-2.6,28.7-3.8,43.1c-1.2,12.6-2.2,25.4-3.3,38c-1.6,17.4-3,34.8-4.6,52.4
		c-1.6,16.8-3.3,33.8-4.5,50.6c-0.3,4.1-2.2,5.5-5.5,6.5c-12.8,4.1-25.7,7.5-38.6,11c-19,5.2-37.9,10.6-57,15.5
		c-1.9,0.4-3.8,0.6-5.7,0c-32.6-8.8-65-18.1-97.5-27.1c-1.5-0.4-1.7-1.2-1.7-2.5c-0.9-9.7-1.7-19.3-2.6-29
		c-1.5-16-2.9-31.9-4.4-47.9c-1.2-12.8-2.2-25.7-3.3-38.4c-1.5-16.8-3-33.8-4.5-50.6c-1.3-14.2-2.5-28.6-3.8-42.8
		c-1.2-13.3-2.3-26.7-3.5-40c-0.4-5.7-0.6-5.7,5.1-5.7C170.1,142.5,210.1,142.5,250,142.5z M234.3,290.2
		C234.3,290.2,234.3,290.3,234.3,290.2c11,0.1,22,0.1,33.2,0.1c6.4,0,12.6,0,19,0c1.2,0,1.6,0.1,1.5,1.5c-1,5.7-1.3,11.3-1.7,17
		c-0.6,6.4-1.3,12.8-1.9,19.1c-0.1,1.7-0.9,2.6-2.6,3c-10.3,2.9-20.6,5.8-31,8.1c-1,0.3-2.2,0.3-3.2,0c-10.4-2.6-20.9-5.5-31.3-8.3
		c-1.2-0.3-1.5-0.9-1.6-2c-0.6-7.3-1.3-14.4-1.9-21.6c-0.1-1.2-0.4-1.6-1.7-1.6c-9.6,0-19.1,0-28.6,0c-1.5,0-1.7,0.4-1.7,1.7
		c0.1,5.4,0.6,10.7,1.2,16.1c0.9,9.9,1.9,19.9,3.2,29.7c0.3,1.6,0.9,2.3,2.5,2.8c20.2,5.9,40.3,11.5,60.5,17c0.7,0.1,1.5,0.1,2.2,0
		c5.4-1.5,10.7-2.8,16.1-4.2c15.4-4.2,30.6-8.3,45.8-13.2c1.6-0.4,2.2-1.3,2.3-2.9c0.6-5.9,1.3-11.9,1.7-17.8
		c2.3-24.8,4.2-49.6,6.8-74.3c0.1-1-0.3-1.5-1.2-1.6c-1.5-0.1-2.8-0.3-4.2-0.3c-12.2-0.3-24.4-0.3-36.6-0.3c-21.2,0-42.4,0-63.7,0.1
		c-1.5,0-2-0.3-1.7-1.9c0.4-2.9,0.6-5.8,0.9-8.7c1.2-12.2,2.5-24.5,3.6-36.7c0.1-1,0.4-1.5,1.5-1.5c10-0.1,19.9-1.2,29.9-0.4
		c4.2,0.3,8.3,0.1,12.5,0.3c7.3,0.3,14.5,0.4,21.8,1.2c1.3,0.1,1.9,0.6,2,1.9c1.2,9.4,2.2,18.9,2.8,28.3c0.1,1.3,0.6,1.9,1.7,2
		c0.7,0,1.5,0.1,2.2,0.1c9,0.3,17.8,0,26.8,0.1c1.6,0,2-0.4,1.9-2c-2-21.3-3.9-42.6-5.8-64c-0.1-1.5-0.4-2-2.2-2
		c-15.7,0-31.3-0.1-47-0.1c-18.9,0-37.9,0-56.7,0c-6.4,0-12.8,0-19.1,0.4c-1,0-1.5,0.4-1.6,1.6c-2,18.7-3.6,37.4-5.2,56.1
		c-1,10.4-1.9,20.9-2.8,31.3c-0.7,8-1.3,16-2,23.8c-0.1,1.6,0.3,2.2,2,2.2C199.9,290.2,217.2,290.2,234.3,290.2z"/>
	<path class="st1" d="M271.9,107.6c-1.6-2.5-3.5-4.2-5.2-6.2c-4.8-5.4-9.7-10.6-14.6-15.8c-0.9-1-1.5-1.9-1.3-3.3
		c0.1-2.5,0.1-4.9,0-7.4c0-1.2,0.4-1.5,1.6-1.5c13.8,0,27.4,0,41.2,0c1.2,0,1.5,0.3,1.5,1.5c0,3.2-0.1,6.5,0,9.7
		c0,1.3-0.4,1.5-1.6,1.5c-6.2,0-12.5,0-18.6,0c0,0.3-0.1,0.4-0.1,0.7c1.7,1.9,3.6,3.9,5.4,5.8c4.9,5.2,9.7,10.6,14.6,15.8
		c0.9,0.9,1.2,1.7,1.2,3c-0.1,2.6,0,5.4,0,8c0,0.9-0.1,1.5-1.3,1.5c-14.1,0-28.3,0-42.4,0c-1,0-1.3-0.3-1.3-1.2c0-3.5,0-6.8,0-10.3
		c0-1.2,0.6-1.2,1.5-1.2c5.9,0,11.9,0.1,17.7-0.1C270.6,107.6,271.2,107.6,271.9,107.6z"/>
	<path class="st1" d="M243.2,97c0,7.4,0,14.6,0,22c0,1.3-0.3,1.6-1.6,1.6c-11.9,0-23.9,0-35.8,0c-1.2,0-1.6-0.3-1.5-1.5
		c0-4.4,0.1-8.7,0-13.1c0-1.3,0.3-1.6,1.6-1.6c6.5,0,13.1,0,19.6,0.1c1.5,0,1.7-0.4,1.7-1.7c0-9.3,0-18.4,0-27.7
		c0-1.3,0.3-1.9,1.7-1.9c4.2,0.1,8.4,0.1,12.6,0c1.3,0,1.7,0.1,1.7,1.6C243.2,82.2,243.2,89.6,243.2,97z"/>
	<path class="st2" d="M234.3,290.2c-17.3,0-34.4,0-51.6,0c-1.7,0-2.2-0.6-2-2.2c0.7-8,1.3-16,2-23.8c0.9-10.4,1.9-20.9,2.8-31.3
		c1.7-18.7,3.3-37.4,5.2-56.1c0.1-1.2,0.6-1.5,1.6-1.6c6.4-0.4,12.8-0.4,19.1-0.4c18.9,0,37.9,0,56.7,0c15.7,0,31.3,0.1,47,0.1
		c1.6,0,2,0.6,2.2,2c1.9,21.3,3.8,42.6,5.8,64c0.1,1.6-0.1,2-1.9,2c-9-0.1-17.8,0.1-26.8-0.1c-0.7,0-1.5,0-2.2-0.1
		c-1.2-0.1-1.7-0.7-1.7-2c-0.6-9.4-1.6-18.9-2.8-28.3c-0.1-1.5-0.9-1.7-2-1.9c-7.3-0.7-14.5-1-21.8-1.2c-4.2-0.1-8.4,0-12.5-0.3
		c-10-0.6-19.9,0.4-29.9,0.4c-1.2,0-1.5,0.4-1.5,1.5c-1.2,12.3-2.3,24.5-3.6,36.7c-0.3,2.9-0.4,5.8-0.9,8.7
		c-0.3,1.6,0.3,1.9,1.7,1.9c21.2,0,42.4-0.1,63.7-0.1c12.2,0,24.4,0,36.6,0.3c1.5,0,2.8,0.1,4.2,0.3c1,0.1,1.3,0.6,1.2,1.6
		c-2.6,24.8-4.5,49.6-6.8,74.3c-0.6,5.9-1.3,11.9-1.7,17.8c-0.1,1.6-0.7,2.3-2.3,2.9c-15.1,4.8-30.5,9-45.8,13.2
		c-5.4,1.5-10.7,2.8-16.1,4.2c-0.7,0.1-1.5,0.1-2.2,0c-20.2-5.5-40.5-11-60.5-17c-1.6-0.4-2.2-1.3-2.5-2.8
		c-1.5-9.9-2.3-19.7-3.2-29.7c-0.4-5.4-1-10.7-1.2-16.1c0-1.3,0.3-1.7,1.7-1.7c9.6,0,19.1,0,28.6,0c1.3,0,1.6,0.4,1.7,1.6
		c0.6,7.3,1.3,14.4,1.9,21.6c0.1,1.2,0.4,1.6,1.6,2c10.4,2.8,20.9,5.8,31.3,8.3c1.2,0.3,2.2,0.3,3.2,0c10.4-2.3,20.7-5.2,31-8.1
		c1.7-0.4,2.5-1.3,2.6-3c0.6-6.4,1.2-12.8,1.9-19.1c0.6-5.7,0.9-11.3,1.7-17c0.3-1.3-0.3-1.5-1.5-1.5c-6.4,0-12.6,0-19,0
		C256.5,290.3,245.5,290.3,234.3,290.2C234.3,290.3,234.3,290.2,234.3,290.2z"/>
</g>
</svg>
