<?xml version="1.0" encoding="utf-8"?>
<!-- Generator: Adobe Illustrator 25.4.1, SVG Export Plug-In . SVG Version: 6.00 Build 0)  -->
<svg version="1.1" id="Capa_1" xmlns="http://www.w3.org/2000/svg" xmlns:xlink="http://www.w3.org/1999/xlink" x="0px" y="0px"
	 viewBox="0 0 500 500" style="enable-background:new 0 0 500 500;" xml:space="preserve">
<style type="text/css">
	.st0{fill:none;stroke:#000000;stroke-width:31.25;stroke-linecap:round;stroke-linejoin:round;stroke-miterlimit:133.3333;}
</style>
<g id="File__x2F__Notebook">
	<path id="Vector" class="st0" d="M187.5,125H175c-17.5,0-26.3,0-32.9,3.4c-5.9,3-10.7,7.8-13.7,13.7c-3.4,6.7-3.4,15.4-3.4,32.9
		v150c0,17.5,0,26.2,3.4,32.9c3,5.9,7.8,10.7,13.7,13.7c6.7,3.4,15.4,3.4,32.9,3.4h12.5 M187.5,125H325c17.5,0,26.2,0,32.9,3.4
		c5.9,3,10.7,7.8,13.7,13.7c3.4,6.7,3.4,15.4,3.4,32.9v150.1c0,17.5,0,26.2-3.4,32.9c-3,5.9-7.8,10.7-13.7,13.7
		c-6.7,3.4-15.4,3.4-32.9,3.4H187.5 M187.5,125v250 M250,234.4h62.5 M250,187.5h62.5"/>
</g>
</svg>
