<?xml version="1.0" encoding="utf-8"?>
<!-- Generator: Adobe Illustrator 25.4.1, SVG Export Plug-In . SVG Version: 6.00 Build 0)  -->
<svg version="1.1" id="Capa_1" xmlns="http://www.w3.org/2000/svg" xmlns:xlink="http://www.w3.org/1999/xlink" x="0px" y="0px"
	 viewBox="0 0 500 500" style="enable-background:new 0 0 500 500;" xml:space="preserve">
<style type="text/css">
	.st0{fill:#FFFFFF;}
</style>
<g>
	<path d="M50.5,53.7c1.7,0.1,3.4,0.2,5.2,0.2c82.1,0,164.2-0.4,246.3,0.2c33.7,0.2,61.7,19.4,70,53.7c6.6,27.4-1.9,50.6-22.9,69.3
		c-1.1,1-2.2,1.8-4.1,3.3c21.2,0,41.6,0,62.3,0c0,12.8,0,25.2,0,38.1c-1.8,0-3.5,0-5.2,0c-84.6,0-169.3,0-253.9,0
		c-11.3,0-21,3.2-28,12.5c-7.3,9.7-8.7,20.5-3.9,31.6c4.9,11.1,13.6,17.6,25.8,18.6c6.3,0.5,12.8,0.3,19.1,0.3c1.4,0,2.9,0,4.5,0
		c0,4.4,0,8.3,0,12.5c-16.3-0.1-32.7,2.3-47-8.5c-14.9-11.3-21.4-30.5-16-48.4c5.4-17.7,21.4-30.2,39.9-31.1
		c2.4-0.1,4.8-0.1,7.2-0.1c79.8,0,159.7,0,239.5,0c1.7,0,3.4,0,5.4,0c0-4.3,0-8.2,0-12.4c-1.2-0.1-2.4-0.2-3.5-0.2
		c-81.7,0-163.4-0.1-245.1,0c-25.2,0-46.2,14.7-54.5,37.5c-12.8,35.5,12.3,73.6,50,75.7c6.5,0.4,13,0.1,19.6,0.2c1.4,0,2.8,0,4.5,0
		c0,4.4,0,8.3,0,12.6c-2.8,0-5.5,0-8.1,0c-12.8,0-25.6-0.3-38.3,0.1c-23.6,0.7-41,11.8-50.9,33c-9.7,20.7-6.9,40.9,7.2,58.9
		c11.7,14.9,27.6,21.4,46.5,21.4c56.8-0.1,113.6,0,170.5,0c46.4,0,92.9,0,139.3,0c1.6,0,3.1,0,4.9,0c0-4.3,0-8.2,0-12.7
		c-1.8,0-3.5,0-5.2,0c-103.1,0-206.2,0-309.4,0c-16,0-29.2-5.6-38.4-18.8c-9.7-14-11-29.3-3.5-44.6c7.5-15.3,20.4-23.4,37.4-24.7
		c2.3-0.2,4.5-0.1,6.8-0.1c102.3,0,204.6,0,307,0c1.7,0,3.4,0,5.3,0c0-4.3,0-8.2,0-12.5c-50.9,0-101.7,0-152.8,0c0-4.2,0-8.1,0-12.6
		c36.8,0,73.7,0,110.8,0c0-4.4,0-8.3,0-12.7c-37,0-73.7,0-110.9,0c0-4.3,0-8.2,0-12.5c41,0,82,0,123.6,0c0,8.2,0,16.4,0,24.9
		c14.2,0,27.8,0,41.8,0c0,12.6,0,24.9,0,37.8c-1.7,0-3.5,0-5.3,0c-107,0-214,0-320.9,0c-11.4,0-21.3,3.3-28.3,12.7
		c-7.1,9.5-8.4,20.1-3.9,30.9c4.6,11,13.2,17.4,25.1,19.1c2.6,0.4,5.3,0.3,8,0.3c106.7,0,213.4,0,320.1,0c1.7,0,3.4,0,5.4,0
		c0,12.9,0,25.5,0,38.7c-1.6,0-3,0-4.4,0c-107.5,0-215,0.4-322.5-0.2c-38.3-0.2-66.3-25.6-71.3-60.8c-0.1-0.6-0.4-1.2-0.7-1.8
		c0-4.8,0-9.6,0-14.4c0.2-0.6,0.6-1.2,0.7-1.8c4-26.4,18.5-44.7,42.8-55.3c3.9-1.7,8.1-2.7,12.6-4.2c-19.6-14.2-30.3-32.9-30.7-56.7
		c-0.4-23.7,9.9-42.6,29-57.7c-18.8,0-36.6,0-54.4,0c0-12.5,0-25,0-37.5c1.9-0.1,3.7-0.3,5.6-0.3c80.7,0,161.5,0,242.2,0
		c3.4,0,6.9-0.2,10.3-0.5c20.8-1.9,34-25.9,24.5-44.5c-6.4-12.5-16.9-18-30.8-18c-82.6,0.1-165.2,0-247.8,0.1c-1.3,0-2.6,0.1-4,0.2
		C50.5,79.7,50.5,66.7,50.5,53.7z M63.3,180.7c1.9,0,3.4,0,4.8,0c22.6,0,45.2,0,67.8,0c56.1,0,112.3,0.1,168.4,0
		c36.3-0.1,62.8-32.3,56-67.7c-5.3-27.2-28.6-45.7-57.8-45.7c-78.2,0-156.4,0-234.7,0c-1.4,0-2.8,0-4.5,0c0,4.4,0,8.3,0,12.7
		c1.8,0,3.3,0,4.9,0c55.3,0,110.7,0,166,0c23.9,0,47.9-0.3,71.8,0.1c29.2,0.5,49.4,29.3,40.7,57.2c-6,18.9-22.9,30.8-44.1,30.8
		c-78.1,0-156.2,0-234.3,0c-1.7,0-3.3,0-5.1,0C63.3,172.6,63.3,176.4,63.3,180.7z"/>
	<path class="st0" d="M50.5,92.8c1.3-0.1,2.6-0.2,4-0.2c82.6,0,165.2,0,247.8-0.1c14,0,24.4,5.5,30.8,18
		c9.5,18.6-3.7,42.7-24.5,44.5c-3.4,0.3-6.9,0.5-10.3,0.5c-80.7,0-161.5,0-242.2,0c-1.9,0-3.7,0.2-5.6,0.3
		C50.5,134.8,50.5,113.8,50.5,92.8z M308.8,105.4c-75.8,0-151.2,0-226.5,0c0,4.2,0,8,0,11.9c75.6,0,151,0,226.5,0
		C308.8,113.1,308.8,109.3,308.8,105.4z M308.8,130.6c-75.8,0-151.1,0-226.5,0c0,4.2,0,8.2,0,12c75.7,0,151,0,226.5,0
		C308.8,138.5,308.8,134.7,308.8,130.6z"/>
	<path class="st0" d="M50.5,193.4c17.8,0,35.6,0,54.4,0c-19.2,15.1-29.4,33.9-29,57.7c0.4,23.8,11.1,42.5,30.7,56.7
		c-4.5,1.5-8.7,2.5-12.6,4.2c-24.3,10.6-38.8,28.9-42.8,55.3c-0.1,0.6-0.4,1.2-0.7,1.8C50.5,310.5,50.5,251.9,50.5,193.4z"/>
	<path d="M141.1,231.4c81.2,0,162.1,0,243.3,0c0,4.1,0,7.9,0,12.1c-36.8,0-73.6,0-110.8,0c0,23.1,0,45.7,0,69
		c-2.3-0.4-4.1-0.7-5.8-1.1c-13-3.2-26-6.5-39.1-9.6c-2.3-0.5-5-0.6-7.4,0c-13.8,3.2-27.6,6.7-41.4,10.1c-0.9,0.2-1.8,0.3-3.2,0.5
		c0-22.9,0-45.6,0-68.7c-12.1,0-23.7,0-35.6,0C141.1,239.5,141.1,235.7,141.1,231.4z M260.4,244c-23.8,0-47.3,0-70.7,0
		c0,17.6,0,34.9,0,52.5c9.7-2.4,19-4.4,28.2-7c4.8-1.3,9.2-1.3,14,0c9.3,2.6,18.8,4.7,28.5,7.1C260.4,278.9,260.4,261.6,260.4,244z"
		/>
	<path d="M418,382.7c0,4,0,7.9,0,12.1c-100.7,0-201.2,0-302,0c0-4.1,0-8,0-12.1C216.7,382.7,317.2,382.7,418,382.7z"/>
	<path d="M116,369.5c0-4,0-8,0-12.1c100.7,0,201.2,0,302,0c0,4,0,7.9,0,12.1C317.3,369.5,216.8,369.5,116,369.5z"/>
	<path d="M384.3,256.7c0,4,0,7.9,0,12c-33.6,0-66.9,0-100.4,0c0-4.1,0-7.9,0-12C317.3,256.7,350.7,256.7,384.3,256.7z"/>
	<path d="M165.8,268.7c-8.3,0-16.4,0-24.8,0c0-4,0-7.8,0-12c8.2,0,16.3,0,24.8,0C165.8,260.6,165.8,264.5,165.8,268.7z"/>
	<path class="st0" d="M63.3,180.7c0-4.3,0-8.1,0-12.6c1.8,0,3.4,0,5.1,0c78.1,0,156.2,0,234.3,0c21.2,0,38.2-11.9,44.1-30.8
		c8.8-27.9-11.4-56.6-40.7-57.2c-23.9-0.4-47.9-0.1-71.8-0.1c-55.3,0-110.7,0-166,0c-1.6,0-3.1,0-4.9,0c0-4.4,0-8.3,0-12.7
		c1.6,0,3,0,4.5,0c78.2,0,156.4,0,234.7,0c29.2,0,52.6,18.5,57.8,45.7c6.8,35.3-19.6,67.6-56,67.7c-56.1,0.2-112.3,0-168.4,0
		c-22.6,0-45.2,0-67.8,0C66.7,180.7,65.2,180.7,63.3,180.7z"/>
	<path d="M308.8,105.4c0,4,0,7.8,0,11.9c-75.5,0-150.9,0-226.5,0c0-3.9,0-7.7,0-11.9C157.6,105.4,232.9,105.4,308.8,105.4z"/>
	<path d="M308.8,130.6c0,4.1,0,7.9,0,12c-75.5,0-150.8,0-226.5,0c0-3.9,0-7.8,0-12C157.7,130.6,233,130.6,308.8,130.6z"/>
	<path class="st0" d="M260.4,244c0,17.6,0,34.9,0,52.5c-9.7-2.4-19.2-4.5-28.5-7.1c-4.8-1.3-9.2-1.3-14,0c-9.2,2.6-18.5,4.6-28.2,7
		c0-17.6,0-34.9,0-52.5C213.1,244,236.6,244,260.4,244z"/>
</g>
</svg>
