<?xml version="1.0" encoding="utf-8"?>
<!-- Generator: Adobe Illustrator 25.4.1, SVG Export Plug-In . SVG Version: 6.00 Build 0)  -->
<svg version="1.1" id="Capa_1" xmlns="http://www.w3.org/2000/svg" xmlns:xlink="http://www.w3.org/1999/xlink" x="0px" y="0px"
	 viewBox="0 0 500 500" style="enable-background:new 0 0 500 500;" xml:space="preserve">
<style type="text/css">
	.st0{fill:#0069B4;}
	.st1{fill:#FFFFFF;}
</style>
<g>
	<path class="st0" d="M125,249.9c0-21.2-0.1-42.4,0.1-63.7c0.1-9.8,1.1-19.6,5.3-28.7c8.1-18,22.2-28.3,41.6-31.1
		c6.9-1,13.9-1.3,20.9-1.3c40.2-0.1,80.5-0.1,120.7,0c10.4,0,20.9,1.2,30.4,5.9c18.8,9.3,28.4,24.9,30.3,45.4
		c0.5,4.7,0.7,9.5,0.7,14.3c0.1,40.8,0.1,81.7,0,122.5c0,9.3-0.9,18.7-4.6,27.4c-7.9,19.1-22.4,30-42.7,32.9c-7,1-14.2,1.3-21.2,1.3
		c-39.9,0.1-79.7,0.3-119.6-0.1c-8.5-0.1-17.3-1.2-25.3-3.9c-20.3-6.8-31.8-21.6-35.2-42.7c-1-6.4-1.3-12.9-1.3-19.4
		C125,289.2,125,269.6,125,249.9z M180.1,250.6c0,16.6,0.1,33.1-0.1,49.7c0,2.9,0.6,4.2,3.8,4c4.9-0.3,9.8-0.2,14.7,0
		c2.9,0.1,3.9-0.9,3.8-3.8c-0.1-8.7,0.1-17.4-0.1-26.1c-0.1-3.1,0.7-4.2,4.1-4.2c6.8-0.1,13.8-0.1,20.5-1.4
		c28.8-5.6,33.8-28,29.5-46.4c-3.2-13.8-15.3-23.9-31.5-25.2c-13.6-1.1-27.4-0.3-41.1-0.5c-3,0-3.7,1.1-3.7,3.9
		C180.1,217.3,180.1,233.9,180.1,250.6z M269.3,281.8c0,5,0.1,10.4-0.1,15.8c-0.1,2.7,1,4.2,3.5,4.8c4.7,1.1,9.5,2.7,14.3,3.1
		c10.5,1,20.9,0.6,30.2-5.4c14.1-9.1,14.6-29.3,0.7-38.7c-4.4-3-9.6-4.9-14.4-7.2c-3.4-1.7-7.1-2.9-10.2-5.1
		c-1.6-1.1-3.2-3.9-2.8-5.6c0.4-1.7,2.9-3.6,4.8-4c3.3-0.7,6.9-0.9,10.2-0.3c5.7,0.9,11.4,2.5,17.6,3.9c0-4.6-0.3-9.5,0.1-14.3
		c0.3-3.8-1.4-5.7-4.7-6c-7.9-0.7-15.8-1.7-23.7-1.4c-4.5,0.1-9.2,1.8-13.2,3.9c-16.1,8.6-17.2,29.7-2.2,39.9
		c4.1,2.8,8.9,4.7,13.4,6.9c3.3,1.6,6.9,2.7,9.9,4.7c1.6,1.1,3.4,3.8,3.1,5.5c-0.3,1.7-2.8,3.9-4.7,4.3c-3.9,0.7-8.1,1.1-12,0.4
		C282.5,285.9,276.1,283.7,269.3,281.8z"/>
	<path class="st1" d="M180.1,250.6c0-16.7,0.1-33.4-0.1-50c0-2.8,0.6-3.9,3.7-3.9c13.7,0.2,27.5-0.5,41.1,0.5
		c16.1,1.3,28.3,11.5,31.5,25.2c4.3,18.3-0.7,40.8-29.5,46.4c-6.7,1.3-13.6,1.3-20.5,1.4c-3.4,0-4.1,1.1-4.1,4.2
		c0.2,8.7,0,17.4,0.1,26.1c0,2.9-0.9,3.9-3.8,3.8c-4.9-0.2-9.8-0.2-14.7,0c-3.2,0.2-3.9-1.1-3.8-4
		C180.1,283.7,180.1,267.2,180.1,250.6z M202.3,233.2c0,4.9-0.1,9.8,0.1,14.7c0,1,1.5,2.8,2.2,2.7c6.1-0.2,12.3-0.1,18.2-1.4
		c8.8-1.9,12.9-7.9,12.7-16.8c-0.2-8.2-4.8-14.1-13.3-15.6c-5.5-1-11.2-0.6-16.8-0.9c-2.5-0.1-3.2,1-3.1,3.3
		C202.4,223.9,202.3,228.6,202.3,233.2z"/>
	<path class="st1" d="M269.3,281.8c6.9,1.9,13.2,4.1,19.7,5.3c3.9,0.7,8.1,0.4,12-0.4c1.9-0.4,4.4-2.6,4.7-4.3
		c0.3-1.7-1.4-4.4-3.1-5.5c-3-2-6.6-3.1-9.9-4.7c-4.5-2.2-9.2-4.1-13.4-6.9c-15-10.3-13.9-31.3,2.2-39.9c4-2.1,8.8-3.8,13.2-3.9
		c7.9-0.3,15.8,0.7,23.7,1.4c3.4,0.3,5,2.2,4.7,6c-0.3,4.8-0.1,9.7-0.1,14.3c-6.2-1.4-11.8-3-17.6-3.9c-3.3-0.5-6.9-0.4-10.2,0.3
		c-1.9,0.4-4.5,2.4-4.8,4c-0.4,1.6,1.2,4.5,2.8,5.6c3.1,2.1,6.7,3.4,10.2,5.1c4.8,2.4,10,4.2,14.4,7.2c13.9,9.4,13.4,29.5-0.7,38.7
		c-9.3,6-19.7,6.4-30.2,5.4c-4.8-0.5-9.6-2-14.3-3.1c-2.4-0.6-3.6-2.1-3.5-4.8C269.4,292.2,269.3,286.8,269.3,281.8z"/>
	<path class="st0" d="M202.3,233.2c0-4.7,0.1-9.3,0-14c0-2.3,0.6-3.4,3.1-3.3c5.6,0.3,11.3-0.1,16.8,0.9c8.5,1.5,13.1,7.5,13.3,15.6
		c0.2,8.9-3.8,14.9-12.7,16.8c-5.9,1.3-12.1,1.2-18.2,1.4c-0.7,0-2.2-1.8-2.2-2.7C202.2,243,202.3,238.1,202.3,233.2z"/>
</g>
</svg>
