<?xml version="1.0" encoding="utf-8"?>
<!-- Generator: Adobe Illustrator 25.4.1, SVG Export Plug-In . SVG Version: 6.00 Build 0)  -->
<svg version="1.1" id="Capa_1" xmlns="http://www.w3.org/2000/svg" xmlns:xlink="http://www.w3.org/1999/xlink" x="0px" y="0px"
	 viewBox="0 0 500 500" style="enable-background:new 0 0 500 500;" xml:space="preserve">
<style type="text/css">
	.st0{fill:#FFFFFF;}
</style>
<g>
	<path d="M430,345.1c0,5.2,0,10.4,0,15.6c-0.1,0.3-0.2,0.5-0.3,0.8c-1.3,9.1-8.8,15.7-17.9,15.7c-107.9,0-215.8,0-323.7,0
		c-7.4,0-13.9-4.4-16.7-11.2c-0.6-1.4-0.9-2.9-1.4-4.4c0-5.5,0-10.9,0-16.4c1.2-3.3,3.6-4.8,7.1-4.6c1.8,0.1,3.5,0,5.4,0
		c0-0.8,0-1.4,0-2c0-63.8,0-127.6,0-191.5c0-13.3,11-24.2,24.2-24.2c95.6,0,191.1,0,286.7,0c13.3,0,24.2,11,24.2,24.3
		c0,63.9,0,127.7,0,191.6c0,0.6,0,1.2,0,1.9c2.4,0,4.6,0,6.8,0c1.6,0,3,0.6,4,1.8C429.1,343.2,429.5,344.2,430,345.1z M405.9,340.5
		c0-0.8,0-1.5,0-2.1c0-55.6,0-111.1,0-166.7c0-7.9,0-15.9,0-23.8c0-3.8-1.2-7.1-4-9.8c-2.9-2.8-6.3-3.6-10.2-3.6
		c-94.4,0-188.9,0-283.3,0c-0.4,0-0.8,0-1.1,0c-7.8,0.2-13.1,5.7-13.1,13.5c0,63.6,0,127.3,0,190.9c0,0.5,0,1,0,1.6
		C198.1,340.5,301.9,340.5,405.9,340.5z M81.7,352.5c0,2.3-0.1,4.5,0,6.7c0.1,2.5,1.4,4.6,3.7,5.6c1.3,0.6,2.9,0.7,4.4,0.7
		c106.8,0,213.6,0,320.3,0c0.7,0,1.3,0,2,0c3.1-0.2,5.6-2.4,6-5.4c0.3-2.5,0.1-5,0.1-7.5c-43.6,0-87.3,0-131,0
		c-0.7,4.4-2.8,6.2-7.2,6.2c-19.9,0-39.8,0-59.7,0c-4.6,0-6.4-1.5-7.3-5.9c0-0.1-0.1-0.1-0.2-0.2
		C169.1,352.5,125.5,352.5,81.7,352.5z"/>
	<path class="st0" d="M405.9,340.5c-104,0-207.8,0-311.8,0c0-0.6,0-1.1,0-1.6c0-63.6,0-127.3,0-190.9c0-7.8,5.3-13.3,13.1-13.5
		c0.4,0,0.8,0,1.1,0c94.4,0,188.9,0,283.3,0c3.9,0,7.4,0.9,10.2,3.6c2.8,2.7,4,6,4,9.8c0,7.9,0,15.9,0,23.8c0,55.6,0,111.1,0,166.7
		C405.9,339.1,405.9,339.7,405.9,340.5z M250,147.8c-45.4,0-90.8,0-136.3,0c-4.2,0-6.5,2.3-6.5,6.4c0,55.6,0,111.2,0,166.8
		c0,4.2,2.3,6.5,6.6,6.5c90.7,0,181.5,0,272.2,0.1c3.8,0,6.8-2.5,6.8-6.8c-0.1-55.4-0.1-110.7,0-166.1c0-4.1-2.7-6.9-6.9-6.9
		C340.6,147.8,295.3,147.8,250,147.8z"/>
	<path class="st0" d="M81.7,352.5c43.8,0,87.5,0,131.1,0c0.1,0.1,0.2,0.1,0.2,0.2c0.9,4.4,2.7,5.9,7.3,5.9c19.9,0,39.8,0,59.7,0
		c4.4,0,6.5-1.7,7.2-6.2c43.7,0,87.4,0,131,0c0,2.6,0.2,5.1-0.1,7.5c-0.3,3.1-2.9,5.2-6,5.4c-0.7,0-1.3,0-2,0
		c-106.8,0-213.6,0-320.3,0c-1.5,0-3.1-0.2-4.4-0.7c-2.4-1-3.6-3-3.7-5.6C81.6,357,81.7,354.8,81.7,352.5z"/>
	<path d="M250,147.8c45.3,0,90.6,0,136-0.1c4.2,0,6.9,2.9,6.9,6.9c-0.1,55.4-0.1,110.7,0,166.1c0,4.3-3,6.8-6.8,6.8
		c-90.7-0.1-181.5-0.1-272.2-0.1c-4.3,0-6.6-2.3-6.6-6.5c0-55.6,0-111.2,0-166.8c0-4.1,2.4-6.4,6.5-6.4
		C159.2,147.8,204.6,147.8,250,147.8z M380.9,315.6c0-52.1,0-104.1,0-156.1c-87.3,0-174.6,0-261.8,0c0,52.1,0,104.1,0,156.1
		C206.4,315.6,293.6,315.6,380.9,315.6z"/>
	<path class="st0" d="M380.9,315.6c-87.3,0-174.5,0-261.8,0c0-52,0-104,0-156.1c87.3,0,174.5,0,261.8,0
		C380.9,211.5,380.9,263.5,380.9,315.6z"/>
</g>
</svg>
