<?xml version="1.0" encoding="utf-8"?>
<!-- Generator: Adobe Illustrator 25.4.1, SVG Export Plug-In . SVG Version: 6.00 Build 0)  -->
<svg version="1.1" id="Capa_1" xmlns="http://www.w3.org/2000/svg" xmlns:xlink="http://www.w3.org/1999/xlink" x="0px" y="0px"
	 viewBox="0 0 500 500" style="enable-background:new 0 0 500 500;" xml:space="preserve">
<g>
	<path d="M210.6,199.9c-0.3-7.9,0.3-15.1,3.2-21.9c7.5-17.1,25-26.4,43.6-23.1c17.3,3,30.8,18.2,31.8,36.6c0.4,7.3,0.4,14.8-1,21.9
		c-4.1,19.8-22.2,32.5-42.2,30.6c-19.3-1.8-34.4-17.9-35.4-37.7C210.5,204,210.6,201.6,210.6,199.9z M221.9,199.2
		c0,2.2-0.1,4.5,0,6.7c0.8,14.7,12.2,26.4,26.4,27.1c15.2,0.7,27.8-9.5,29.5-24.7c0.7-6.2,0.6-12.7-0.2-19
		c-1.5-12.1-10.7-21.1-22.9-23.4c-11.4-2.1-23.1,3.4-29.1,13.7C222.1,185.7,221.5,192.4,221.9,199.2z"/>
	<path d="M396.2,233.1c0.8,12.1-2,23-10.3,32.1c-7.4,8.1-16.7,12.3-27.6,12.9c-4,0.2-6.6-1.8-6.9-5.2c-0.3-3.4,2-5.6,6.1-6
		c17.4-1.7,27.7-12.9,27.6-30.5c0-4.6,0.1-9.3-0.6-13.8c-2.1-13.7-14.4-23.7-28.1-23.4c-13.8,0.3-25.6,10.7-27.2,24.6
		c-0.6,5.9-0.6,12-0.1,17.9c0.7,8.7,5.1,15.5,12.3,20.4c0.5,0.4,1.1,0.7,1.6,1c3,2.2,3.7,5,2.1,7.8c-1.7,2.8-4.9,3.6-8.1,1.6
		c-9.2-5.5-15.5-13.4-17.9-23.8c-2.5-10.9-2.8-22.1,0.4-32.9c5.3-17.9,23.4-29.8,41.2-27.7c19.9,2.4,34.6,17.8,35.6,37.5
		C396.3,228.1,396.2,230.6,396.2,233.1z"/>
	<path d="M182.8,233c0.5,11.9-2,22.9-10.3,31.8c-2.7,3-6.1,5.5-9.5,7.8c-2.9,2-6.1,1-7.8-1.6c-1.7-2.7-1.1-5.9,1.9-7.8
		c10.5-6.7,14.8-16.4,14.2-28.5c-0.1-3.1,0.1-6.2-0.2-9.3c-1.2-14.9-13.3-26.2-28-26.2c-14.8,0-27.1,11.6-28.1,26.6
		c-0.3,4.8-0.3,9.7,0,14.6c0.9,13.8,11.1,24.5,24.8,26.3c1,0.1,2,0.2,3,0.3c3.8,0.4,6,2.6,5.9,5.9c-0.2,3.4-2.8,5.6-6.8,5.3
		c-13.6-0.8-24.6-6.6-31.6-18.2c-3-5-5.3-10.9-6-16.6c-1.4-11.9-1.8-23.9,4.4-35c8.4-14.9,25.1-22.8,42.1-19.6
		c16.3,3,29.2,16.9,31.3,33.9C182.6,226,182.6,229.5,182.8,233z"/>
	<path d="M143.4,283.2c17,0.3,33.8,1.9,50.4,5.5c13.4,3,22.3,13.8,22.5,27.5c0.1,7.5,0.1,15,0,22.4c0,4.3-2.1,6.9-5.6,7
		c-3.6,0.1-5.6-2.5-5.6-7.2c0-7.1,0-14.2,0-21.3c-0.1-9.2-5.1-15.7-14.2-17.5c-31.9-6.5-63.7-6.6-95.6,0.1c-9.1,1.9-14,8.2-14,17.6
		c0,7.2,0,14.5,0,21.7c0,4.1-2.1,6.6-5.5,6.7c-3.5,0.1-5.7-2.5-5.7-6.8c0-7.7-0.1-15.5,0-23.2c0.2-13.2,9.3-24.3,22.2-26.9
		c6.9-1.4,13.9-2.8,21-3.5C123.2,284.3,133.3,283.9,143.4,283.2z"/>
	<path d="M357.7,295c-17.2-0.1-33.4,1.3-49.4,4.9c-8.2,1.9-13.3,8.2-13.4,16.6c-0.1,7.5,0,15,0,22.4c0,4.3-2.2,6.9-5.7,6.8
		c-3.3-0.1-5.5-2.6-5.5-6.7c0-7.9-0.2-15.7,0-23.6c0.3-12.9,9.3-23.9,21.8-26.6c33.9-7.1,67.9-7.3,101.9-0.1
		c13.7,2.9,22.4,13.8,22.6,27.7c0.1,7.5,0,15,0,22.4c0,4.3-2.3,6.8-5.8,6.7c-3.3-0.1-5.4-2.6-5.4-6.7c0-7.2,0-14.5,0-21.7
		c0-9.6-5.3-15.9-14.8-17.8C388.4,296.3,372.7,294.7,357.7,295z"/>
	<path d="M249.9,250c16.2-0.3,32.3,1.4,48.2,4.4c9,1.7,16.3,5.8,21.1,13.9c2.3,3.9,1.8,7.3-1.3,9.1c-3,1.8-5.9,0.7-8.3-3.2
		c-2.7-4.6-6.7-7.3-11.8-8.3c-31.9-6.4-63.7-6.4-95.6,0c-5.3,1.1-9.3,3.8-12.1,8.5c-2.2,3.7-5.1,4.7-8,3c-3-1.7-3.7-5-1.6-8.7
		c4.1-7.4,10.4-11.9,18.7-13.7C215.9,251.4,232.8,249.6,249.9,250z"/>
</g>
</svg>
